<svg id="Castle" xmlns="http://www.w3.org/2000/svg" viewBox="0 0 512 512"><title>Castle</title><g id="C"><polyline points="268.46 405.13 268.46 272.21 298.64 272.21 298.64 408.55" style="fill:#eed9eb"/><polygon points="268.46 272.65 283.55 181.46 298.64 272.65 268.46 272.65" style="fill:#e77b73"/><polyline points="155.93 299.46 268.46 299.46 268.46 314.48 163.29 314.48" style="fill:#bfa1db"/><path d="M153,312.42V395H268.91V312.42Zm54.72,50.16-1.78-1.37a10.49,10.49,0,0,1-10.58,7.9c-12.2,0-14.32-15.57-6.44-21.07v-9.73a9.4,9.4,0,0,1,18.8,0Zm37.58,21.84-18.8-8.33V338.31a9.4,9.4,0,0,1,18.8,0Z" style="fill:#eed9eb"/><polygon points="234.61 264.51 223.47 206.1 212.34 264.51 212.28 264.51 212.28 299.46 234.66 299.46 234.66 264.51 234.61 264.51" style="fill:#bfa1db"/><path d="M235.16,300H211.78V264h.14l11.55-60.58L235,264h.14Zm-22.38-1h21.38V264.75l0-.14-10.64-55.84-10.69,56.08Z" style="fill:#b3a3b0"/><polygon points="332 229.38 356.68 96.6 381.35 229.38 332 229.38" style="fill:#e77b73"/><rect x="324.62" y="229.38" width="64.1" height="11.24" style="fill:#5b7dbb"/><polyline points="385.16 372.75 385.16 338.23 328.19 338.23 328.19 401.02" style="fill:#bfa1db"/><path d="M334.21,240.62v97.61h44.93V240.62Zm31.9,58.84H347.24V275.09a9.44,9.44,0,0,1,18.87,0Z" style="fill:#eed9eb"/><path d="M298.42,393.78a154.75,154.75,0,0,1-47.27-302.1A177.13,177.13,0,1,0,429,322.08a155.58,155.58,0,0,1-44.69,45.69A154,154,0,0,1,298.42,393.78Z" style="fill:#5b7dbb"/></g><g id="line"><path d="M140.43,380.83a3,3,0,0,1-2.22-1,166.75,166.75,0,0,1-14.31-18,3,3,0,1,1,4.94-3.39,162.4,162.4,0,0,0,13.8,17.38,3,3,0,0,1-2.21,5Z" style="fill:#204184"/><path d="M298.65,395a3,3,0,0,1-3-3V275.21H271.46V389a3,3,0,0,1-6,0V272.21a3,3,0,0,1,3-3h30.19a3,3,0,0,1,3,3V392A3,3,0,0,1,298.65,395Z" style="fill:#204184"/><path d="M298.65,275.65H268.46a3,3,0,0,1-3-3.49L280.59,181a3,3,0,0,1,5.92,0l15.09,91.19a3,3,0,0,1-3,3.49Zm-26.65-6h23.11l-11.56-69.82Z" style="fill:#204184"/><path d="M283.55,184.46a3,3,0,0,1-3-3V151.15a3,3,0,0,1,6,0v30.31A3,3,0,0,1,283.55,184.46Z" style="fill:#204184"/><path d="M268.46,317.48H163.29a3,3,0,1,1,0-6H265.46v-9H155.92a3,3,0,0,1,0-6H268.46a3,3,0,0,1,3,3v15A3,3,0,0,1,268.46,317.48Z" style="fill:#204184"/><path d="M245.29,387.42a3,3,0,0,1-3-3V338.31a6.4,6.4,0,0,0-12.8,0v37.78a3,3,0,0,1-6,0V338.31a12.4,12.4,0,0,1,24.8,0v46.11A3,3,0,0,1,245.29,387.42Z" style="fill:#204184"/><path d="M207.71,365.58h0a3,3,0,0,1-3-3V338.31a6.4,6.4,0,0,0-12.8,0v9.76a3,3,0,0,1-6,0v-9.76a12.4,12.4,0,0,1,24.8,0v24.27A3,3,0,0,1,207.71,365.58Z" style="fill:#204184"/><path d="M234.66,302.46H212.28a3,3,0,0,1-3-3V264.51a3.07,3.07,0,0,1,.21-1.1l11-57.87a3,3,0,0,1,5.9,0l11,57.86a3,3,0,0,1,.21,1.11v34.95A3,3,0,0,1,234.66,302.46Zm-19.38-6h16.38V265.08h0l-8.19-43-8.19,43h0Z" style="fill:#204184"/><path d="M379.14,341.23H334.21a3,3,0,0,1-3-3V240.62a3,3,0,0,1,3-3h44.93a3,3,0,0,1,3,3v97.61A3,3,0,0,1,379.14,341.23Zm-41.93-6h38.93V243.62H337.21Z" style="fill:#204184"/><path d="M381.35,232.38H332a3,3,0,0,1-2.95-3.55L353.73,96.05a3,3,0,0,1,5.89,0L384.3,228.83a3,3,0,0,1-2.95,3.55Zm-45.74-6h42.13L356.67,113Z" style="fill:#204184"/><path d="M388.73,243.62H324.62a3,3,0,0,1-3-3V229.38a3,3,0,0,1,3-3h64.11a3,3,0,0,1,3,3v11.24A3,3,0,0,1,388.73,243.62Zm-61.11-6h58.11v-5.24H327.62Z" style="fill:#204184"/><path d="M328.19,393.92a3,3,0,0,1-3-3V338.23a3,3,0,0,1,3-3h57a3,3,0,0,1,3,3v29a3,3,0,0,1-6,0v-26h-51v49.69A3,3,0,0,1,328.19,393.92Z" style="fill:#204184"/><path d="M324.62,232.38a3,3,0,0,1-3-3V197.9a3,3,0,1,1,6,0v31.48A3,3,0,0,1,324.62,232.38Z" style="fill:#204184"/><path d="M388.73,230.21a3,3,0,0,1-3-3V195.73a3,3,0,0,1,6,0v31.48A3,3,0,0,1,388.73,230.21Z" style="fill:#204184"/><path d="M356.67,99.6a3,3,0,0,1-3-3V66.29a3,3,0,0,1,6,0V96.6A3,3,0,0,1,356.67,99.6Z" style="fill:#204184"/><path d="M288.7,310.12a3,3,0,0,1-3-3v-30.8a3,3,0,0,1,6,0v30.8A3,3,0,0,1,288.7,310.12Z" style="fill:#204184"/><path d="M279.51,393.92a3,3,0,0,1-3-3v-30.8a3,3,0,0,1,6,0v30.8A3,3,0,0,1,279.51,393.92Z" style="fill:#204184"/><path d="M366.11,302.46H347.24a3,3,0,0,1-3-3V275.09a12.44,12.44,0,0,1,24.87,0v24.37A3,3,0,0,1,366.11,302.46Zm-15.87-6h12.87V275.09a6.44,6.44,0,0,0-12.87,0Z" style="fill:#204184"/><path d="M385.16,355.31H347.24a3,3,0,0,1,0-6h37.92a3,3,0,0,1,0,6Z" style="fill:#204184"/><path d="M362,370.93H328.19a3,3,0,0,1,0-6H362a3,3,0,0,1,0,6Z" style="fill:#204184"/><path d="M362.16,90.2h-11a3,3,0,0,1,0-6h11a3,3,0,0,1,0,6Z" style="fill:#204184"/><path d="M283.55,137a3,3,0,0,1-3-3v-7.33a3,3,0,0,1,6,0V134A3,3,0,0,1,283.55,137Z" style="fill:#204184"/><path d="M298.42,393.78a154.75,154.75,0,0,1-47.27-302.1A177.13,177.13,0,1,0,429,322.08,154.62,154.62,0,0,1,298.42,393.78Z" style="fill:none"/><path d="M260.12,433.71a163.46,163.46,0,0,1-100.32-34c-3.56-2.73-7.05-5.64-10.38-8.65a3,3,0,0,1,4-4.45c3.21,2.91,6.57,5.71,10,8.34a157.52,157.52,0,0,0,96.67,32.81,3,3,0,0,1,0,6Z" style="fill:#204184"/><path d="M184.34,246.63H173.2a3,3,0,0,1,0-6h11.14a3,3,0,1,1,0,6Z" style="fill:#204184"/><path d="M178.77,258.36a3,3,0,0,1-3-3v-24a3,3,0,0,1,6,0v24A3,3,0,0,1,178.77,258.36Z" style="fill:#204184"/><path d="M412.48,145.6H401.34a3,3,0,0,1,0-6h11.14a3,3,0,0,1,0,6Z" style="fill:#204184"/><path d="M406.91,157.33a3,3,0,0,1-3-3v-24a3,3,0,1,1,6,0v24A3,3,0,0,1,406.91,157.33Z" style="fill:#204184"/><path d="M363.78,217.56a9.17,9.17,0,0,1-6.8-3.11c-1.11-1.06-1.55-1.43-2.65-1.43s-1.54.37-2.65,1.43a9,9,0,0,1-13.6,0c-1.11-1.06-1.55-1.43-2.65-1.43a3,3,0,0,1,0-6,9.15,9.15,0,0,1,6.8,3.11c1.11,1.06,1.55,1.43,2.65,1.43s1.54-.37,2.65-1.44a9,9,0,0,1,13.6,0c1.11,1.07,1.55,1.44,2.65,1.44a3,3,0,0,1,0,6Z" style="fill:#204184"/><path d="M373.74,192.72a7.25,7.25,0,0,1-5.33-2.4c-.76-.73-.81-.73-1.18-.73s-.42,0-1.18.73a7.13,7.13,0,0,1-10.67,0c-.75-.73-.81-.73-1.18-.73a3,3,0,0,1,0-6,7.24,7.24,0,0,1,5.34,2.4c.76.73.81.73,1.18.73s.42,0,1.18-.73a7.13,7.13,0,0,1,10.67,0c.75.73.81.73,1.17.73a3,3,0,0,1,0,6Z" style="fill:#204184"/></g></svg>