<svg xmlns="http://www.w3.org/2000/svg" viewBox="0 0 512 512"><title>Compass</title><g id="Compass"><g id="C-13" data-name="C"><path d="M256,71.13C154.06,71.13,71.13,154.06,71.13,256S154.06,440.87,256,440.87,440.87,357.94,440.87,256,357.94,71.13,256,71.13Zm0,351A166.1,166.1,0,1,1,422.1,256,166.09,166.09,0,0,1,256,422.1Z" style="fill:#eed9eb"/><circle cx="256" cy="256" r="93.02" transform="translate(-106.04 256) rotate(-45)" style="fill:#bdcbe4"/><polygon points="354.46 157.54 287.13 256 354.46 354.46 256 287.13 157.54 354.46 224.87 256 157.54 157.54 256 224.87 354.46 157.54" style="fill:#5b7dbb"/><polygon points="256 57.92 287.31 224.69 454.08 256 287.31 287.31 256 454.08 224.69 287.31 57.92 256 224.69 224.69 256 57.92" style="fill:#e77b73"/></g><g id="line-13" data-name="line"><path d="M256,457.08a3,3,0,0,1-2.95-2.44L222.12,289.88,57.36,259a3,3,0,0,1,0-5.9l164.76-30.93L253.05,57.36a3,3,0,0,1,5.9,0l30.93,164.76,164.76,30.93a3,3,0,0,1,0,5.9L289.88,289.88,259,454.64A3,3,0,0,1,256,457.08ZM74.17,256l151.07,28.36a3,3,0,0,1,2.4,2.4L256,437.83l28.36-151.07a3,3,0,0,1,2.4-2.4L437.83,256,286.76,227.64a3,3,0,0,1-2.4-2.4L256,74.17,227.64,225.24a3,3,0,0,1-2.4,2.4Z" style="fill:#204184"/><path d="M256,457.08a3,3,0,0,1-3-3V57.92a3,3,0,0,1,6,0V454.08A3,3,0,0,1,256,457.08Z" style="fill:#204184"/><path d="M453.33,259H58.67a3,3,0,0,1,0-6H453.33a3,3,0,0,1,0,6Z" style="fill:#204184"/><path d="M256,443.87C152.41,443.87,68.13,359.59,68.13,256S152.41,68.13,256,68.13,443.87,152.41,443.87,256,359.59,443.87,256,443.87Zm0-369.74C155.72,74.13,74.13,155.72,74.13,256S155.72,437.87,256,437.87,437.87,356.28,437.87,256,356.28,74.13,256,74.13Z" style="fill:#204184"/><path d="M256,425.1c-93.24,0-169.1-75.86-169.1-169.1S162.76,86.9,256,86.9,425.1,162.76,425.1,256,349.24,425.1,256,425.1Zm0-332.2C166.06,92.9,92.9,166.06,92.9,256S166.06,419.1,256,419.1,419.1,345.94,419.1,256,345.94,92.9,256,92.9Z" style="fill:#204184"/><path d="M109.28,405.72a3,3,0,0,1-2.12-.88,3,3,0,0,1,0-4.24l28.26-28.27a3,3,0,0,1,4.25,4.25L111.4,404.84A3,3,0,0,1,109.28,405.72Z" style="fill:#204184"/><path d="M374.28,140.72a3,3,0,0,1-2.12-5.12l28.44-28.44a3,3,0,1,1,4.24,4.24L376.4,139.84A3,3,0,0,1,374.28,140.72Z" style="fill:#204184"/><path d="M136.71,139.71a3,3,0,0,1-2.12-.87L107.16,111.4a3,3,0,0,1,4.24-4.24l27.44,27.43a3,3,0,0,1-2.13,5.12Z" style="fill:#204184"/><path d="M402.72,405.72a3,3,0,0,1-2.12-.88l-28.05-28a3,3,0,0,1,4.24-4.24l28,28.05a3,3,0,0,1-2.12,5.12Z" style="fill:#204184"/><path d="M225,290a3,3,0,0,1-2.12-.88,3,3,0,0,1,0-4.24l62.29-62.29a3,3,0,0,1,4.24,4.24l-62.29,62.29A3,3,0,0,1,225,290Z" style="fill:#204184"/><path d="M286.17,289.17a3,3,0,0,1-2.12-.88l-61.57-61.57a3,3,0,0,1,4.24-4.24l61.57,61.57a3,3,0,0,1,0,4.24A3,3,0,0,1,286.17,289.17Z" style="fill:#204184"/></g></g></svg>