<svg xmlns="http://www.w3.org/2000/svg" viewBox="0 0 512 512"><title>Crossbow</title><g id="Crossbow"><g id="C-6" data-name="C"><path d="M337.45,197.67l-36.29,43.26a71.32,71.32,0,0,0-14.57,28.39l-.88,3.51A52.63,52.63,0,0,1,275,293.71h0a51.18,51.18,0,0,1-4.17,4.42l-86,81.42L162.37,360.7l65.46-99.1a54,54,0,0,1,3.52-4.72h0a51.07,51.07,0,0,1,18.22-13.79h0a88.41,88.41,0,0,0,31.51-23.86l34.18-40.74" style="fill:#bdcbe4"/><polyline points="321.78 170.72 332.68 157.73 355.15 176.59 344.07 189.79" style="fill:#bdcbe4"/><path d="M149.81,368.22h35.52a9.72,9.72,0,0,1,9.72,9.72v8.46a0,0,0,0,1,0,0h-55a0,0,0,0,1,0,0v-8.46A9.72,9.72,0,0,1,149.81,368.22Z" transform="translate(281.74 -19.44) rotate(40)" style="fill:#5b7dbb"/><polygon points="357.04 127.34 391.82 110.06 380.84 147.32 362.36 144.56 357.04 127.34" style="fill:#e77b73"/><path d="M164.2,149l4.43,14.1a158.9,158.9,0,0,1,155.05,28.17c44.79,37.59,63.88,93.55,54.79,147.33L393.15,341A173.88,173.88,0,0,0,164.44,148.75" style="fill:#bfa1db"/><path d="M313,203.69c-4.07-3.42-8.26-6.59-12.55-9.57a11.39,11.39,0,0,1-3.5,6.64,10.18,10.18,0,0,1-5.76,5.16c4.16,2.87,8.22,5.94,12.17,9.26,4.16,3.48,8.07,7.14,11.78,10.93a10.75,10.75,0,0,1,2.21-3.18,10.7,10.7,0,0,1,7.09-8.72C320.84,210.57,317,207.05,313,203.69Z" style="fill:#5b7dbb"/></g><g id="line-6" data-name="line"><path d="M393.16,344a3.88,3.88,0,0,1-.48,0,3,3,0,0,1-2.49-3.44,172.39,172.39,0,0,0-8-85.78,170.71,170.71,0,0,0-131-110.07,172.42,172.42,0,0,0-85.72,6.88,3,3,0,0,1-2-5.67,178.5,178.5,0,0,1,88.71-7.12,176.69,176.69,0,0,1,135.66,114,178.54,178.54,0,0,1,8.29,88.76A3,3,0,0,1,393.16,344Z" style="fill:#204184"/><path d="M168.63,163.11a158.9,158.9,0,0,1,155.05,28.17c44.79,37.59,63.88,93.55,54.79,147.33" style="fill:none"/><path d="M184.84,382.55a3,3,0,0,1-1.93-.7L160.44,363a3,3,0,0,1-.58-3.95l63.9-97.22a51.17,51.17,0,0,1,3.65-4.91,52.48,52.48,0,0,1,19-14.26,82.49,82.49,0,0,0,29.9-22.43l32-38.44a3,3,0,1,1,4.61,3.84l-32,38.45a88.63,88.63,0,0,1-32.1,24.08A46.47,46.47,0,0,0,232,260.77a49,49,0,0,0-3.23,4.35l-62.43,95,18.38,15.42,82.49-77.73a46.19,46.19,0,0,0,3.84-4.07,47.73,47.73,0,0,0,9.79-19.3l.84-3.45a72.14,72.14,0,0,1,14.77-29.12l33.95-40.76A3,3,0,0,1,335,205l-34,40.77a66.31,66.31,0,0,0-13.54,26.69l-.84,3.45a53.79,53.79,0,0,1-11,21.74,56.64,56.64,0,0,1-4.32,4.58L186.9,381.74A3,3,0,0,1,184.84,382.55Z" style="fill:#204184"/><path d="M344.07,192.79a3,3,0,0,1-2.3-4.93L350.92,177l-17.87-15-9,10.69a3,3,0,0,1-4.6-3.85l10.9-13a3,3,0,0,1,2-1.06,3.05,3.05,0,0,1,2.19.69l22.47,18.86a3,3,0,0,1,.37,4.22l-11.08,13.21A3,3,0,0,1,344.07,192.79Z" style="fill:#204184"/><path d="M149.81,368.22h35.52a9.72,9.72,0,0,1,9.72,9.72v8.46a0,0,0,0,1,0,0h-55a0,0,0,0,1,0,0v-8.46A9.72,9.72,0,0,1,149.81,368.22Z" transform="translate(281.74 -19.44) rotate(40)" style="fill:none"/><path d="M196,346.43a3,3,0,0,1-2.3-4.93L319.87,190.91a3,3,0,0,1,4.6,3.85L198.31,345.35A3,3,0,0,1,196,346.43Z" style="fill:#204184"/><path d="M333.55,182.51a3,3,0,0,1-2.31-4.91l28.81-34.95a3,3,0,1,1,4.63,3.82l-28.81,34.95A3,3,0,0,1,333.55,182.51Z" style="fill:#204184"/><path d="M174.55,372a3,3,0,0,1-2.29-4.93l26.22-31.25a3,3,0,1,1,4.6,3.86l-26.23,31.25A3,3,0,0,1,174.55,372Z" style="fill:#204184"/><path d="M380.85,150.32a3.4,3.4,0,0,1-.45,0l-18.48-2.76a3,3,0,0,1-2.42-2.08l-5.33-17.22a3,3,0,0,1,1.53-3.57l34.79-17.28a3,3,0,0,1,4.21,3.53l-11,37.26A3,3,0,0,1,380.85,150.32Zm-16.18-8.45,14,2.1,8.3-28.16L360.66,128.9Z" style="fill:#204184"/><path d="M214.55,322.74a3,3,0,0,1-2.88-2.15L162.2,152.84c-6.36,2-21.44,6.1-32.94,4.21a77,77,0,0,1-24.58-8.3,3,3,0,1,1,3-5.16,72.44,72.44,0,0,0,22.51,7.54c13.12,2.16,32.74-4.87,32.94-4.94a3,3,0,0,1,3.9,2l50.35,170.73a3,3,0,0,1-2,3.73A3.17,3.17,0,0,1,214.55,322.74Z" style="fill:#204184"/><path d="M393.16,344l-.34,0L214.53,324.16a3,3,0,0,1,.67-6l178.29,19.85a3,3,0,0,1-.33,6Z" style="fill:#204184"/><path d="M405.8,400.2a3,3,0,0,1-2.28-1.05,77,77,0,0,1-12.44-22.77c-4.92-14-1.26-35.42-1.11-36.32a3,3,0,0,1,5.92,1c0,.2-3.54,20.78.85,33.3a72.49,72.49,0,0,0,11.34,20.86,3,3,0,0,1-.34,4.23A3,3,0,0,1,405.8,400.2Z" style="fill:#204184"/><path d="M207.68,349.07a3,3,0,0,1-1.93-.7l-16.3-13.68a3,3,0,0,1-.37-4.23l34.44-41a3,3,0,0,1,4.22-.37l16.31,13.68a3,3,0,0,1,.37,4.23L210,348a3,3,0,0,1-2,1.06ZM195.6,332l11.71,9.83,30.58-36.45-11.71-9.83Z" style="fill:#204184"/></g></g></svg>